# xmcd CD database file
#
# Track frame offsets:
#	150
#	2927
#	25332
#	32207
#	44575
#	55342
#	64930
#	81407
#	99180
#	110385
#	120017
#	125092
#	128427
#	135967
#	141215
#	155400
#	160267
#	177152
#	182592
#	186665
#	206637
#	211309
#	227670
#	240275
#
# Disc length: 3249 seconds
#
# Revision: 2
# Processed by: cddbd v1.5.2PL0 Copyright (c) Steve Scherf et al.
# Submitted via: CDex 1.51
#
DISCID=480caf18
DTITLE=Various Artist - Clérambault - Montéclair - Couperin  (Martin Gester, Le Parlement de Musique)
DYEAR=1999
DGENRE=Classique
TTITLE0=Louis-Nicolas Clérambault - La Muse de l'opéra - Prelude -  Fort gravement
TTITLE1=Louis-Nicolas Clérambault - La Muse de l'opéra - Récitatif et Air gay - Au son des trompettes
TTITLE2=Louis-Nicolas Clérambault - La Muse de l'opéra - Tempeste - Le soleil s'obscurcit
TTITLE3=Louis-Nicolas Clérambault - La Muse de l'opéra - Récitatif et Air - Oiseaux qui sous ces feuillages
TTITLE4=Louis-Nicolas Clérambault - La Muse de l'opéra - Sommeil - Vos concert heureux oiseaux
TTITLE5=Louis-Nicolas Clérambault - La Muse de l'opéra - Prelude Infernal - Mais quels nouveaux accords
TTITLE6=Louis-Nicolas Clérambault - La Muse de l'opéra - Récitatif et Air gay - Ce n'est qu'une belle chimère
TTITLE7=François Couperin - Huitième Concert dans le goût théatral - Ouverture
TTITLE8=François Couperin - Huitième Concert dans le goût théatral - Grande Ritournèle - Gravement
TTITLE9=François Couperin - Huitième Concert dans le goût théatral - Air - Noblement
TTITLE10=François Couperin - Huitième Concert dans le goût théatral - Air - Tendre (Rondeau)
TTITLE11=François Couperin - Huitième Concert dans le goût théatral - Air - Léger
TTITLE12=François Couperin - Huitième Concert dans le goût théatral - Loure - Pesamment
TTITLE13=François Couperin - Huitième Concert dans le goût théatral -Air - Animé et léger 
TTITLE14=François Couperin - Huitième Concert dans le goût théatral - Sarabande - Grave et tendre
TTITLE15=François Couperin - Huitième Concert dans le goût théatral - Air - Léger
TTITLE16=François Couperin - Huitième Concert dans le goût théatral - Air Tendre - Lentement
TTITLE17=François Couperin - Huitième Concert dans le goût théatral - Air des Bacchantes - Très animé
TTITLE18=Michel Pignolet de Montéclair - La Mort de Lucrèce - Récitativo - Ferma Tarquinio
TTITLE19=Michel Pignolet de Montéclair - La Mort de Lucrèce - Aria - Dove vai
TTITLE20=Michel Pignolet de Montéclair - La Mort de Lucrèce - Récitativo - Ma folle
TTITLE21=Michel Pignolet de Montéclair - La Mort de Lucrèce - Aria - Coraggio miei spiriti
TTITLE22=Michel Pignolet de Montéclair - La Mort de Lucrèce - Recitativo e Aria - Assistete mi
TTITLE23=Michel Pignolet de Montéclair - La Mort de Lucrèce - Récitativo - Cosi mori
EXTD=YEAR: 1999
EXTT0=
EXTT1=
EXTT2=
EXTT3=
EXTT4=
EXTT5=
EXTT6=
EXTT7=
EXTT8=
EXTT9=
EXTT10=
EXTT11=
EXTT12=
EXTT13=
EXTT14=
EXTT15=
EXTT16=
EXTT17=
EXTT18=
EXTT19=
EXTT20=
EXTT21=
EXTT22=
EXTT23=
PLAYORDER=
